# xmcd CD database file
#
# Track frame offsets:
#	150
#	18245
#	43392
#	58165
#	74630
#	97600
#	118965
#	140357
#	159585
#	177150
#
# Disc length: 2715 seconds
#
# Revision: 5
# Processed by: cddbd v1.5.1PL2 Copyright (c) Steve Scherf et al.
# Submitted via: CDex 1.51
#
DISCID=8c0a990a
DTITLE=Judy Blair - Les couleurs du noir et blanc
DYEAR=1900
DGENRE=Jazz
TTITLE0=Fine and mellow (Billie Holiday)
TTITLE1=Gentle night (Judy Blair)
TTITLE2=Les couleurs du noir et blanc (Judy Blair)
TTITLE3=Good morning heartache (Higginbotham, Drake, Fisher
TTITLE4=Caravan (Duke Ellington, Tizol)
TTITLE5=You've changed (Fisher, Carey)
TTITLE6=Les grelots (Eddy Louiss)
TTITLE7=Laneviile blues (Judy Blair)
TTITLE8=All of me (Simons, Marks)
TTITLE9=Amazing grace (arrangement par Judy Blair)
EXTD=
EXTT0=
EXTT1=
EXTT2=
EXTT3=
EXTT4=
EXTT5=
EXTT6=
EXTT7=
EXTT8=
EXTT9=
PLAYORDER=
